<svg width="111" height="54" viewBox="0 0 111 54" fill="none" xmlns="http://www.w3.org/2000/svg">
<path d="M54.2412 21.5013C50.9274 21.5013 48.2412 24.1875 48.2412 27.5013C48.2412 29.1576 48.9123 30.6573 49.9977 31.743C51.0834 32.8293 53.6412 34.4013 53.7912 36.0513C53.8137 36.2987 53.9928 36.5013 54.2412 36.5013C54.4896 36.5013 54.6687 36.2987 54.6912 36.0513C54.8412 34.4013 57.399 32.8293 58.4847 31.743C59.5701 30.6573 60.2412 29.1576 60.2412 27.5013C60.2412 24.1875 57.555 21.5013 54.2412 21.5013Z" fill="#FF4433"/>
<path d="M54.3412 29.7013C55.501 29.7013 56.4412 28.7611 56.4412 27.6013C56.4412 26.4415 55.501 25.5013 54.3412 25.5013C53.1814 25.5013 52.2412 26.4415 52.2412 27.6013C52.2412 28.7611 53.1814 29.7013 54.3412 29.7013Z" fill="white"/>
<path d="M81.7217 24.7474L81.673 28.9582L60.2413 28.5013C60.2763 28.2387 60.2406 28.1798 60.2437 27.9079C60.2582 26.6527 59.9213 25.479 59.3286 24.4888L81.7217 24.7474ZM69.471 0.508786L74.663 0.56874L58.9068 23.8701C58.2414 23.0012 56.7414 21.5012 54.5002 21.5667L69.471 0.508786ZM39.5555 0.141224L54.0002 21.5C52.5269 21.6831 50.6998 22.4878 49.7456 23.5768L33.8743 0.0756207L39.5555 0.141224ZM49.1527 24.3713C48.5374 25.3475 48.2559 26.246 48.2414 27.5012C48.2382 27.7732 48.5034 28.7101 48.1982 28.5717L27.0002 28.3269L27.0488 24.1161L49.1527 24.3713Z" fill="#161925"/>
<path d="M5.16672 51H7V41H4.33275C1.65092 40.9977 0.240708 42.3072 0.240708 44.2356C0.240708 45.776 1.01389 46.6813 2.3925 47.6166L0 50.9977H1.98402L4.64884 47.2125L3.7249 46.6236C2.60403 45.9053 2.0594 45.3441 2.0594 44.134C2.0594 43.0693 2.84717 42.3487 4.34734 42.3487H5.16429L5.16672 51Z" fill="#E63F0C"/>
<path d="M13.265 48.179H10.444V51H8.871V44.253H10.444V46.905H13.265V44.253H14.851V51H13.265V48.179ZM20.8151 45.527H18.8131C18.7697 46.5757 18.6961 47.438 18.5921 48.114C18.4881 48.7813 18.3234 49.3187 18.0981 49.726H20.8151V45.527ZM22.0241 51H17.3311L17.2271 52.924H15.8361V49.726H16.4471C16.6377 49.5527 16.7894 49.3143 16.9021 49.011C17.0234 48.7077 17.1187 48.3307 17.1881 47.88C17.2661 47.4293 17.3224 46.905 17.3571 46.307C17.3917 45.709 17.4264 45.0243 17.4611 44.253H22.4011V49.726H23.5191V52.924H22.1411L22.0241 51ZM27.4242 45.345C26.9736 45.345 26.6009 45.475 26.3062 45.735C26.0202 45.995 25.8296 46.385 25.7342 46.905H28.8412C28.8586 46.385 28.7372 45.995 28.4772 45.735C28.2259 45.475 27.8749 45.345 27.4242 45.345ZM30.2322 50.48C30.1889 50.5147 30.1022 50.5667 29.9722 50.636C29.8509 50.7053 29.6862 50.779 29.4782 50.857C29.2789 50.9263 29.0362 50.987 28.7502 51.039C28.4642 51.0997 28.1349 51.13 27.7622 51.13C26.5229 51.13 25.5956 50.8223 24.9802 50.207C24.3736 49.5917 24.0702 48.7293 24.0702 47.62C24.0702 47.074 24.1526 46.5843 24.3172 46.151C24.4819 45.7177 24.7116 45.3537 25.0062 45.059C25.3009 44.7557 25.6519 44.526 26.0592 44.37C26.4752 44.2053 26.9302 44.123 27.4242 44.123C27.9269 44.123 28.3819 44.2053 28.7892 44.37C29.1966 44.5347 29.5302 44.7817 29.7902 45.111C30.0589 45.4403 30.2452 45.852 30.3492 46.346C30.4532 46.84 30.4532 47.412 30.3492 48.062H25.7082C25.7689 48.6513 25.9682 49.0933 26.3062 49.388C26.6529 49.6827 27.1642 49.83 27.8402 49.83C28.1176 49.83 28.3689 49.8083 28.5942 49.765C28.8282 49.713 29.0276 49.6567 29.1922 49.596C29.3656 49.5267 29.5086 49.4617 29.6212 49.401C29.7426 49.3317 29.8292 49.2753 29.8812 49.232L30.2322 50.48ZM33.9313 48.283H33.3463V51H31.7733V44.253H33.3463V47.022H33.9703L36.0763 44.253H37.7143L35.2053 47.49L37.8443 51H35.9723L33.9313 48.283ZM41.6739 51.13C41.1365 51.13 40.6469 51.052 40.2049 50.896C39.7629 50.74 39.3859 50.5147 39.0739 50.22C38.7619 49.9167 38.5192 49.5483 38.3459 49.115C38.1725 48.6817 38.0859 48.1877 38.0859 47.633C38.0859 47.087 38.1725 46.5973 38.3459 46.164C38.5192 45.722 38.7619 45.3537 39.0739 45.059C39.3859 44.7557 39.7585 44.526 40.1919 44.37C40.6252 44.2053 41.0975 44.123 41.6089 44.123C42.0769 44.123 42.4842 44.175 42.8309 44.279C43.1862 44.3743 43.4722 44.5 43.6889 44.656L43.3639 45.878C43.1385 45.748 42.8915 45.6397 42.6229 45.553C42.3629 45.4577 42.0379 45.41 41.6479 45.41C41.0499 45.41 40.5775 45.5963 40.2309 45.969C39.8842 46.333 39.7109 46.8877 39.7109 47.633C39.7109 48.3523 39.8885 48.8983 40.2439 49.271C40.5992 49.6437 41.0932 49.83 41.7259 49.83C42.0812 49.83 42.3845 49.7867 42.6359 49.7C42.8872 49.6133 43.1255 49.505 43.3509 49.375L43.6759 50.597C43.4505 50.7443 43.1775 50.87 42.8569 50.974C42.5362 51.078 42.1419 51.13 41.6739 51.13ZM47.7474 51V41.692H49.3984V48.673L54.0264 41.692H55.7424V51H54.0654V44.058L49.4504 51H47.7474ZM59.4673 51.13C58.8693 51.13 58.3796 51.0737 57.9983 50.961C57.6256 50.8397 57.344 50.7097 57.1533 50.571L57.5953 49.349C57.8033 49.479 58.059 49.6003 58.3623 49.713C58.6656 49.817 59.0166 49.869 59.4153 49.869C59.8226 49.869 60.152 49.7997 60.4033 49.661C60.6633 49.5223 60.7933 49.297 60.7933 48.985C60.7933 48.6817 60.685 48.465 60.4683 48.335C60.2516 48.205 59.9093 48.14 59.4413 48.14H58.4793V46.957H59.4673C59.8313 46.957 60.1086 46.8963 60.2993 46.775C60.49 46.645 60.5853 46.4413 60.5853 46.164C60.5853 45.8693 60.4726 45.6657 60.2473 45.553C60.022 45.4403 59.7446 45.384 59.4153 45.384C59.0513 45.384 58.722 45.436 58.4273 45.54C58.1326 45.6353 57.8726 45.7523 57.6473 45.891L57.3353 44.682C57.552 44.552 57.8466 44.4263 58.2193 44.305C58.6006 44.1837 59.0426 44.123 59.5453 44.123C60.386 44.123 61.023 44.2747 61.4563 44.578C61.8983 44.8813 62.1193 45.3233 62.1193 45.904C62.1193 46.346 61.9936 46.6883 61.7423 46.931C61.491 47.1737 61.127 47.3513 60.6503 47.464C61.231 47.542 61.66 47.7067 61.9373 47.958C62.2233 48.2093 62.3663 48.5777 62.3663 49.063C62.3663 49.4183 62.2883 49.726 62.1323 49.986C61.9763 50.246 61.764 50.4627 61.4953 50.636C61.2353 50.8007 60.9276 50.922 60.5723 51C60.2256 51.0867 59.8573 51.13 59.4673 51.13ZM66.7162 51.13C66.2396 51.13 65.7976 51.052 65.3902 50.896C64.9829 50.74 64.6276 50.5147 64.3242 50.22C64.0296 49.9167 63.7956 49.5483 63.6222 49.115C63.4489 48.6817 63.3622 48.1833 63.3622 47.62C63.3622 47.0567 63.4489 46.5583 63.6222 46.125C63.7956 45.6917 64.0296 45.3277 64.3242 45.033C64.6276 44.7297 64.9829 44.5043 65.3902 44.357C65.7976 44.201 66.2396 44.123 66.7162 44.123C67.1929 44.123 67.6392 44.201 68.0552 44.357C68.4712 44.5043 68.8309 44.7297 69.1342 45.033C69.4376 45.3277 69.6759 45.6917 69.8492 46.125C70.0226 46.5583 70.1092 47.0567 70.1092 47.62C70.1092 48.1833 70.0226 48.6817 69.8492 49.115C69.6759 49.5483 69.4376 49.9167 69.1342 50.22C68.8309 50.5147 68.4712 50.74 68.0552 50.896C67.6392 51.052 67.1929 51.13 66.7162 51.13ZM66.7162 49.843C67.2276 49.843 67.6479 49.6653 67.9772 49.31C68.3152 48.946 68.4842 48.3827 68.4842 47.62C68.4842 47.2473 68.4366 46.9223 68.3412 46.645C68.2546 46.3677 68.1332 46.138 67.9772 45.956C67.8212 45.774 67.6349 45.6397 67.4182 45.553C67.2016 45.4577 66.9676 45.41 66.7162 45.41C66.2222 45.41 65.8106 45.592 65.4812 45.956C65.1519 46.3113 64.9872 46.866 64.9872 47.62C64.9872 48.3827 65.1519 48.946 65.4812 49.31C65.8106 49.6653 66.2222 49.843 66.7162 49.843ZM73.5601 48.556L71.9351 51H70.4271L72.7931 47.516L70.6351 44.253H72.4291L73.9111 46.476L75.2891 44.253H76.8101L74.6781 47.516L76.9791 51H75.1851L73.5601 48.556ZM81.4024 49.83C81.9224 49.83 82.3427 49.648 82.6634 49.284C82.9927 48.9113 83.1574 48.3567 83.1574 47.62C83.1574 46.8833 82.9927 46.333 82.6634 45.969C82.3427 45.5963 81.9224 45.41 81.4024 45.41C81.1424 45.41 80.8997 45.4577 80.6744 45.553C80.4577 45.6397 80.267 45.774 80.1024 45.956C79.9464 46.138 79.8207 46.3677 79.7254 46.645C79.63 46.9223 79.5824 47.2473 79.5824 47.62C79.5824 47.9927 79.63 48.3177 79.7254 48.595C79.8207 48.8723 79.9464 49.102 80.1024 49.284C80.267 49.466 80.4577 49.6047 80.6744 49.7C80.8997 49.7867 81.1424 49.83 81.4024 49.83ZM81.7924 51.13C81.281 51.13 80.8434 51.0173 80.4794 50.792C80.1154 50.558 79.8207 50.246 79.5954 49.856V53.301H78.0224V44.253H79.4784L79.5694 45.423C79.7947 45.0243 80.0894 44.708 80.4534 44.474C80.826 44.24 81.281 44.123 81.8184 44.123C82.217 44.123 82.594 44.1967 82.9494 44.344C83.3134 44.4827 83.6297 44.6993 83.8984 44.994C84.167 45.28 84.3794 45.644 84.5354 46.086C84.7 46.5193 84.7824 47.0307 84.7824 47.62C84.7824 48.218 84.7 48.738 84.5354 49.18C84.3794 49.6133 84.1627 49.9773 83.8854 50.272C83.6167 50.558 83.3004 50.7747 82.9364 50.922C82.5724 51.0607 82.191 51.13 81.7924 51.13ZM89.06 51.13C88.5833 51.13 88.1413 51.052 87.734 50.896C87.3266 50.74 86.9713 50.5147 86.668 50.22C86.3733 49.9167 86.1393 49.5483 85.966 49.115C85.7926 48.6817 85.706 48.1833 85.706 47.62C85.706 47.0567 85.7926 46.5583 85.966 46.125C86.1393 45.6917 86.3733 45.3277 86.668 45.033C86.9713 44.7297 87.3266 44.5043 87.734 44.357C88.1413 44.201 88.5833 44.123 89.06 44.123C89.5366 44.123 89.983 44.201 90.399 44.357C90.815 44.5043 91.1746 44.7297 91.478 45.033C91.7813 45.3277 92.0196 45.6917 92.193 46.125C92.3663 46.5583 92.453 47.0567 92.453 47.62C92.453 48.1833 92.3663 48.6817 92.193 49.115C92.0196 49.5483 91.7813 49.9167 91.478 50.22C91.1746 50.5147 90.815 50.74 90.399 50.896C89.983 51.052 89.5366 51.13 89.06 51.13ZM89.06 49.843C89.5713 49.843 89.9916 49.6653 90.321 49.31C90.659 48.946 90.828 48.3827 90.828 47.62C90.828 47.2473 90.7803 46.9223 90.685 46.645C90.5983 46.3677 90.477 46.138 90.321 45.956C90.165 45.774 89.9786 45.6397 89.762 45.553C89.5453 45.4577 89.3113 45.41 89.06 45.41C88.566 45.41 88.1543 45.592 87.825 45.956C87.4956 46.3113 87.331 46.866 87.331 47.62C87.331 48.3827 87.4956 48.946 87.825 49.31C88.1543 49.6653 88.566 49.843 89.06 49.843ZM98.1586 48.179H95.3376V51H93.7646V44.253H95.3376V46.905H98.1586V44.253H99.7446V51H98.1586V48.179ZM109.193 51H107.607V44.253H109.193V51ZM103.044 47.633V49.778H103.902C104.309 49.778 104.638 49.6957 104.89 49.531C105.141 49.3663 105.267 49.0933 105.267 48.712C105.267 48.3307 105.154 48.0577 104.929 47.893C104.703 47.7197 104.378 47.633 103.954 47.633H103.044ZM101.471 44.253H103.044V46.411H103.954C104.881 46.411 105.6 46.593 106.112 46.957C106.632 47.321 106.892 47.8843 106.892 48.647C106.892 49.0457 106.818 49.3923 106.671 49.687C106.523 49.9817 106.315 50.2287 106.047 50.428C105.787 50.6187 105.47 50.7617 105.098 50.857C104.734 50.9523 104.335 51 103.902 51H101.471V44.253Z" fill="black"/>
</svg>
